<?xml version="1.0" encoding="UTF-8"?>
<svg width="48px" height="32px" viewBox="0 0 48 32" version="1.1" xmlns="http://www.w3.org/2000/svg" xmlns:xlink="http://www.w3.org/1999/xlink">
    <!-- Generator: Sketch 54.1 (76490) - https://sketchapp.com -->
    <title>02 Branding/Logo_Blue</title>
    <desc>Created with Sketch.</desc>
    <g id="02-Branding/Logo_Blue" stroke="none" stroke-width="1" fill="none" fill-rule="evenodd">
        <g id="logo-blue" fill="#210096" fill-rule="nonzero">
            <path d="M16.2636504,6.35159464 L15.4974896,6.24376861 C15.2751207,6.21692489 15.1414087,6.13594264 15.0613604,6.05518593 C14.9634241,5.95638301 14.9365923,5.83953388 14.9365923,5.75877718 C14.9365923,5.48018908 15.1592966,5.16562136 15.7024177,5.16562136 C15.9786739,5.16562136 16.504019,5.13866485 16.9047078,5.54312518 L17.8845172,4.55475771 C17.3412842,4.00660459 16.6555071,3.79095257 15.7471375,3.79095257 C14.3042553,3.79095257 13.4314379,4.64453752 13.4314379,5.81246461 C13.4314379,6.36061774 13.5738702,6.79192174 13.8677907,7.09746635 C14.1527672,7.39387511 14.5802878,7.58268339 15.1414087,7.66344009 L15.9073459,7.77126612 C16.1122741,7.79822264 16.2458743,7.86115873 16.3259226,7.94202824 C16.4150267,8.04083115 16.4506907,8.16659054 16.4506907,8.31941925 C16.4506907,8.68767435 16.1567702,8.89452885 15.5423211,8.89452885 C15.0345285,8.89452885 14.4557434,8.77767976 14.1261589,8.44517864 L13.1286853,9.45159228 C13.7699663,10.1163689 14.5625117,10.2961542 15.5333772,10.2961542 C16.8692674,10.2961542 17.9824534,9.58626202 17.9824534,8.28343962 C17.9824534,7.69050941 17.848965,7.21431548 17.5104366,6.88181435 C17.243348,6.61224936 16.8337152,6.43257694 16.2636504,6.35159464" id="Fill-2"></path>
            <path d="M7.92433682,15.2396043 L7.15828777,15.1317783 C6.93580711,15.104709 6.8020951,15.0239523 6.72204676,14.94297 C6.62411054,14.8441671 6.59727873,14.727318 6.59727873,14.6465613 C6.59727873,14.3679732 6.81998297,14.0534055 7.36321594,14.0534055 C7.63936031,14.0534055 8.1648172,14.0265617 8.565506,14.4309093 L9.54520357,13.4425418 C9.00197061,12.8945015 8.31619349,12.6788495 7.40782388,12.6788495 C5.96494169,12.6788495 5.09212427,13.5323216 5.09212427,14.7004743 C5.09212427,15.2486274 5.23466843,15.6798186 5.52858888,15.9852505 C5.81345359,16.2818848 6.24108606,16.4704675 6.8020951,16.5514498 L7.56814416,16.6592758 C7.77296053,16.6861195 7.90656075,16.7490556 7.98660904,16.8298123 C8.07582492,16.9286152 8.11137712,17.0544874 8.11137712,17.2072033 C8.11137712,17.575684 7.81745667,17.782313 7.2030075,17.782313 C6.69521494,17.782313 6.11642978,17.6654639 5.78684533,17.3330755 L4.78937168,18.3393764 C5.43065266,19.0042658 6.22319814,19.1839383 7.19406357,19.1839383 C8.5299538,19.1839383 9.64313979,18.4741589 9.64313979,17.1713365 C9.64313979,16.5782935 9.50965137,16.1020996 9.17123478,15.7697112 C8.90403439,15.5001462 8.4944016,15.320361 7.92433682,15.2396043" id="Fill-4"></path>
            <polygon id="Fill-6" points="13.4236902 19.1299914 17.7343371 19.1299914 17.7343371 17.7283661 14.9822847 17.7283661 14.9822847 16.6053289 17.3334247 16.6053289 17.3334247 15.2034781 14.9822847 15.2034781 14.9822847 14.1343539 17.7343371 14.1343539 17.7343371 12.7327286 13.4236902 12.7327286"></polygon>
            <polygon id="Fill-8" points="30.9333777 16.0663004 31.8328033 17.6477109 32.8303888 17.6477109 33.7299263 16.0663004 33.7299263 19.1303185 35.2885207 19.1303185 35.2885207 12.7329429 33.7565345 12.7329429 32.331652 15.5542397 30.9065458 12.7329429 29.3747832 12.7329429 29.3747832 19.1303185 30.9333777 19.1303185"></polygon>
            <path d="M40.1319362,17.7196363 L40.1319362,16.5964863 L41.1827382,16.5964863 C41.6102588,16.5964863 41.7526912,16.8840976 41.7526912,17.1536625 C41.7526912,17.4231148 41.6102588,17.7196363 41.1827382,17.7196363 L40.1319362,17.7196363 Z M40.1319362,14.1435575 L41.1026899,14.1435575 C41.5302105,14.1435575 41.6636989,14.4131225 41.6636989,14.6647541 C41.6636989,14.9162729 41.5302105,15.1858379 41.1026899,15.1858379 L40.1319362,15.1858379 L40.1319362,14.1435575 Z M43.3111739,17.2434424 C43.3111739,16.3449675 42.7858288,16.0124664 42.5275724,15.8507274 C42.7236684,15.7159449 43.2222934,15.3117101 43.2222934,14.5838846 C43.2222934,13.4787808 42.5186284,12.7329091 41.2006261,12.7329091 L38.5733417,12.7329091 L38.5733417,19.1303975 L41.3341145,19.1303975 C42.4653002,19.1303975 43.3111739,18.4652824 43.3111739,17.2434424 Z" id="Fill-10"></path>
            <polygon id="Fill-12" points="32.1798844 21.4889672 30.6214017 21.4889672 30.6214017 27.8862301 34.8427209 27.8862301 34.8427209 26.4846048 32.1798844 26.4846048"></polygon>
            <polygon id="Fill-14" points="39.877548 27.8862075 41.4361426 27.8862075 41.4361426 25.2805627 43.3509298 21.4889447 41.6500147 21.4889447 40.6612614 23.7891576 39.6637877 21.4889447 37.9627608 21.4889447 39.877548 25.2805627"></polygon>
            <path d="M47.9138409,8.81770847 L47.9138409,31.8060776 L25.1252234,31.8060776 L25.1251116,31.8064159 L25.1242172,31.8060776 L25.122093,31.8060776 L25.122093,31.8054008 L0,23.0439739 L0.000670796006,23.0420565 L0.000670796006,0.0494014546 L22.7924185,0.0494014546 L22.7924185,0.0500781868 L47.9155177,8.81285854 L47.9138409,8.81770847 Z M4.76745903,23.0429588 L25.122093,30.1417674 L25.122093,8.81252019 L43.1447047,8.81252019 L22.7924185,1.71371164 L22.7924185,23.0429588 L4.76745903,23.0429588 Z M26.6724144,30.2420365 L46.3635194,30.2420365 L46.3635194,10.3765612 L26.6724144,10.3765612 L26.6724144,30.2420365 Z M1.55088036,21.4789178 L21.2420971,21.4789178 L21.2420971,1.61332969 L1.55088036,1.61332969 L1.55088036,21.4789178 Z" id="Fill-16"></path>
            <path d="M6.68651692,8.10291002 L7.25646995,6.39585294 L7.79087077,8.10291002 L6.68651692,8.10291002 Z M6.61518897,3.96988058 L4.30854511,10.3672561 L5.93846759,10.3672561 L6.25016416,9.41475553 L8.20061532,9.41475553 L8.49442397,10.3672561 L10.1243465,10.3672561 L7.81759083,3.96988058 L6.61518897,3.96988058 Z" id="Fill-1"></path>
        </g>
    </g>
</svg>